<svg width="495" height="511.962" xmlns="http://www.w3.org/2000/svg" clip-rule="evenodd" fill-rule="evenodd" image-rendering="optimizeQuality" text-rendering="geometricPrecision" shape-rendering="geometricPrecision">

 <g>
  <title>Layer 1</title>
  <path id="svg_1" d="m62.686,511.962l372.371,0l-36.089,-62.816l96.032,-82.376c-28.169,-39.57 -62.177,-73.186 -83.426,-82.313c4.492,-11.642 5.27,-13.683 1.515,-20.139c39.914,-11.352 66.091,-27.943 66.035,-49.863c-0.059,-23.9 -34.387,-46.861 -85.543,-54.849c-12.249,-51.822 -24.432,-92.624 -39.938,-119.402c-2.82,-4.867 -5.749,-9.275 -8.811,-13.195c-46.162,-59.204 -62.34,-2.606 -95.067,-2.672c-37.938,-0.077 -42.766,-52.014 -92.236,-3.124c-5.32,5.258 -10.296,11.648 -14.938,19.092c-16.825,26.955 -29.385,67.801 -38.669,119.301c-54.538,10.31 -88.209,33.076 -87.091,56.325c1.012,21.062 27.574,37.207 67.494,48.355c-2.624,8.118 -2.006,9.511 1.55,19.503c-29.816,12.568 -60.973,50.762 -85.875,84.209l96.902,81.148l-34.216,62.816zm184.129,-101.745c8.695,0 15.746,7.053 15.746,15.748c0,8.693 -7.051,15.746 -15.746,15.746s-15.745,-7.053 -15.745,-15.746c0,-8.695 7.05,-15.748 15.745,-15.748zm-43.494,-72.864c0,-2.911 0.483,-5.876 1.432,-8.873c1.994,-6.363 5.997,-12.39 10.917,-16.854c5.737,-5.213 12.947,-8.985 20.488,-10.746c17.9,-4.172 40.37,0.352 51,16.562l0.13,0.219c6.033,9.281 7.471,22.053 2.16,31.982c-3.503,6.559 -7.651,10.311 -12.944,15.198l-8.663,7.843l-2.411,2.272c-3.162,3.131 -4.364,4.935 -5.562,9.672l-0.796,3.524c-0.68,3.494 -2.097,6.189 -4.242,8.059l-0.207,0.165c-2.216,1.841 -5.06,2.767 -8.512,2.767c-3.698,0 -6.876,-1.234 -9.45,-3.695c-1.349,-1.293 -2.352,-2.885 -3.009,-4.758c-0.612,-1.757 -0.917,-3.731 -0.917,-5.914c0,-8.881 2.663,-16.615 8.725,-23.186c4.405,-4.781 9.548,-9.13 14.42,-13.45c3.604,-3.29 7.683,-6.95 7.683,-12.207c0,-8.204 -7.05,-12.6 -14.532,-12.6c-7.61,0 -11.106,2 -14.668,8.642c-1.131,2.121 -2.166,4.573 -3.089,7.352c-1.125,3.674 -2.805,6.494 -5.033,8.44c-8.662,7.557 -22.92,0.622 -22.92,-10.414zm176.529,-68.973l0.538,3.545l3.092,20.384c30.035,-5.503 9.778,69.444 -14.87,65.515c-4.251,13.322 -7.139,39.976 -10.879,49.934c-34.937,93 -184.185,87.349 -219.85,-6.156c-3.527,-9.243 -6.82,-35.042 -10.903,-46.838c-26.757,6.684 -43.251,-69.348 -13.819,-62.836l3.373,-20.225l0.574,-3.447l0.305,-1.819c83.026,18.029 182.824,16.091 262.214,0.455l0.225,1.488zm-260.025,-97.561l7.198,-24.639c46.656,39.159 207.874,33.023 243.016,0l6.065,24.639c-40.982,43.351 -212.466,37.461 -256.279,0z"/>
 </g>
</svg>